<?xml version="1.0" encoding="utf-8"?>
<!-- Generator: Adobe Illustrator 16.0.4, SVG Export Plug-In . SVG Version: 6.00 Build 0)  -->
<!DOCTYPE svg PUBLIC "-//W3C//DTD SVG 1.1//EN" "http://www.w3.org/Graphics/SVG/1.1/DTD/svg11.dtd">
<svg version="1.1" id="Layer_1" xmlns="http://www.w3.org/2000/svg" xmlns:xlink="http://www.w3.org/1999/xlink" x="0px" y="0px"
	 width="319px" height="377px" viewBox="0 0 319 377" enable-background="new 0 0 319 377" xml:space="preserve">
<rect y="24" fill="#89479B" width="148.895" height="98"/>
<text transform="matrix(1 0 0 1 8 24)" fill="#89479B" font-family="'GothamRounded-Book'" font-size="16">flex-start</text>
<rect y="153" fill="#89479B" width="148.895" height="98"/>
<text transform="matrix(1 0 0 1 8 153)" fill="#89479B" font-family="'GothamRounded-Book'" font-size="16">center</text>
<rect y="279" fill="#89479B" width="148.895" height="98"/>
<text transform="matrix(1 0 0 1 8 279)" fill="#89479B" font-family="'GothamRounded-Book'" font-size="16">space-between</text>
<rect x="159.5" y="153" fill="#89479B" width="148.895" height="98"/>
<text transform="matrix(1 0 0 1 167.5 153)" fill="#89479B" font-family="'GothamRounded-Book'" font-size="16">stretch</text>
<rect x="159.5" y="279" fill="#89479B" width="148.895" height="98"/>
<text transform="matrix(1 0 0 1 167.5 279)" fill="#89479B" font-family="'GothamRounded-Book'" font-size="16">space-around</text>
<rect x="159.5" y="24" fill="#89479B" width="148.895" height="98"/>
<text transform="matrix(1 0 0 1 167.5 24)" fill="#89479B" font-family="'GothamRounded-Book'" font-size="16">flex-end</text>
<rect x="3.5" y="27.5" fill="#E38712" width="15.5" height="19.5"/>
<rect x="23" y="27.5" fill="#E38712" width="30" height="19.5"/>
<rect x="56.5" y="27.5" fill="#E38712" width="8.5" height="19.5"/>
<rect x="3.75" y="51" fill="#E38712" width="26.75" height="19.5"/>
<rect x="34" y="51" fill="#E38712" width="26.75" height="19.5"/>
<rect x="3.75" y="74" fill="#E38712" width="19.25" height="19.5"/>
<rect x="26.375" y="74" fill="#E38712" width="26.625" height="19.5"/>
<rect x="64" y="51" fill="#E38712" width="15.349" height="19.5"/>
<rect x="82.826" y="51" fill="#E38712" width="63.174" height="19.5"/>
<rect x="68.197" y="27.5" fill="#E38712" width="22.303" height="19.5"/>
<rect x="93.697" y="27.5" fill="#E38712" width="52.303" height="19.5"/>
<rect x="163.697" y="51.75" fill="#E38712" width="15.5" height="19.5"/>
<rect x="183.197" y="51.75" fill="#E38712" width="30" height="19.5"/>
<rect x="216.697" y="51.75" fill="#E38712" width="8.5" height="19.5"/>
<rect x="163.947" y="75.25" fill="#E38712" width="26.75" height="19.5"/>
<rect x="194.197" y="75.25" fill="#E38712" width="26.75" height="19.5"/>
<rect x="163.947" y="98.25" fill="#E38712" width="19.25" height="19.5"/>
<rect x="186.572" y="98.25" fill="#E38712" width="26.625" height="19.5"/>
<rect x="224.197" y="75.25" fill="#E38712" width="15.349" height="19.5"/>
<rect x="243.023" y="75.25" fill="#E38712" width="63.174" height="19.5"/>
<rect x="228.395" y="51.75" fill="#E38712" width="22.303" height="19.5"/>
<rect x="253.895" y="51.75" fill="#E38712" width="52.303" height="19.5"/>
<rect x="3.197" y="169" fill="#E38712" width="15.5" height="19.5"/>
<rect x="22.697" y="169" fill="#E38712" width="30" height="19.5"/>
<rect x="56.197" y="169" fill="#E38712" width="8.5" height="19.5"/>
<rect x="3.447" y="192.5" fill="#E38712" width="26.75" height="19.5"/>
<rect x="33.697" y="192.5" fill="#E38712" width="26.75" height="19.5"/>
<rect x="3.447" y="215.5" fill="#E38712" width="19.25" height="19.5"/>
<rect x="26.072" y="215.5" fill="#E38712" width="26.625" height="19.5"/>
<rect x="63.697" y="192.5" fill="#E38712" width="15.349" height="19.5"/>
<rect x="82.523" y="192.5" fill="#E38712" width="63.174" height="19.5"/>
<rect x="67.895" y="169" fill="#E38712" width="22.303" height="19.5"/>
<rect x="93.395" y="169" fill="#E38712" width="52.303" height="19.5"/>
<rect x="3.197" y="283" fill="#E38712" width="15.5" height="19.5"/>
<rect x="22.697" y="283" fill="#E38712" width="30" height="19.5"/>
<rect x="56.197" y="283" fill="#E38712" width="8.5" height="19.5"/>
<rect x="3.447" y="317.5" fill="#E38712" width="26.75" height="19.5"/>
<rect x="33.697" y="317.5" fill="#E38712" width="26.75" height="19.5"/>
<rect x="3.447" y="354" fill="#E38712" width="19.25" height="19.5"/>
<rect x="26.072" y="354" fill="#E38712" width="26.625" height="19.5"/>
<rect x="63.697" y="317.5" fill="#E38712" width="15.349" height="19.5"/>
<rect x="82.523" y="317.5" fill="#E38712" width="63.174" height="19.5"/>
<rect x="67.895" y="283" fill="#E38712" width="22.303" height="19.5"/>
<rect x="93.395" y="283" fill="#E38712" width="52.303" height="19.5"/>
<rect x="162.697" y="289.75" fill="#E38712" width="15.5" height="19.5"/>
<rect x="182.197" y="289.75" fill="#E38712" width="30" height="19.5"/>
<rect x="215.697" y="289.75" fill="#E38712" width="8.5" height="19.5"/>
<rect x="162.947" y="319.25" fill="#E38712" width="26.75" height="19.5"/>
<rect x="193.197" y="319.25" fill="#E38712" width="26.75" height="19.5"/>
<rect x="162.947" y="348.75" fill="#E38712" width="19.25" height="19.5"/>
<rect x="185.572" y="348.75" fill="#E38712" width="26.625" height="19.5"/>
<rect x="223.197" y="319.25" fill="#E38712" width="15.349" height="19.5"/>
<rect x="242.023" y="319.25" fill="#E38712" width="63.174" height="19.5"/>
<rect x="227.395" y="289.75" fill="#E38712" width="22.303" height="19.5"/>
<rect x="252.895" y="289.75" fill="#E38712" width="52.303" height="19.5"/>
<rect x="162.697" y="157" fill="#E38712" width="15.5" height="26.739"/>
<rect x="182.197" y="157" fill="#E38712" width="30" height="26.739"/>
<rect x="215.697" y="157" fill="#E38712" width="8.5" height="26.739"/>
<rect x="162.947" y="189.224" fill="#E38712" width="26.75" height="26.738"/>
<rect x="193.197" y="189.224" fill="#E38712" width="26.75" height="26.738"/>
<rect x="162.947" y="220.762" fill="#E38712" width="19.25" height="26.738"/>
<rect x="185.572" y="220.762" fill="#E38712" width="26.625" height="26.738"/>
<rect x="223.197" y="189.224" fill="#E38712" width="15.349" height="26.738"/>
<rect x="242.023" y="189.224" fill="#E38712" width="63.174" height="26.738"/>
<rect x="227.395" y="157" fill="#E38712" width="22.303" height="26.739"/>
<rect x="252.895" y="157" fill="#E38712" width="52.303" height="26.739"/>
</svg>
