<?xml version="1.0" encoding="utf-8"?>
<!-- Generator: Adobe Illustrator 16.0.4, SVG Export Plug-In . SVG Version: 6.00 Build 0)  -->
<!DOCTYPE svg PUBLIC "-//W3C//DTD SVG 1.1//EN" "http://www.w3.org/Graphics/SVG/1.1/DTD/svg11.dtd">
<svg version="1.1" id="Layer_1" xmlns="http://www.w3.org/2000/svg" xmlns:xlink="http://www.w3.org/1999/xlink" x="0px" y="0px"
	 width="319px" height="377px" viewBox="0 0 319 377" enable-background="new 0 0 319 377" xml:space="preserve">
<rect y="24" fill="#89479B" width="319" height="45"/>
<rect y="35.5" fill="#E88024" width="52.873" height="22"/>
<rect x="63.076" y="35.5" fill="#E88024" width="26.924" height="22"/>
<rect x="100.79" y="35.5" fill="#E88024" width="96.21" height="22"/>
<rect y="98" fill="#89479B" width="319" height="45"/>
<rect x="122" y="109.5" fill="#E88024" width="52.873" height="22"/>
<rect x="185.076" y="109.5" fill="#E88024" width="26.924" height="22"/>
<rect x="222.789" y="109.5" fill="#E88024" width="96.211" height="22"/>
<text transform="matrix(1 0 0 1 8 24)" fill="#89479B" font-family="'GothamRounded-Book'" font-size="16">flex-start</text>
<text transform="matrix(1 0 0 1 8 98)" fill="#89479B" font-family="'GothamRounded-Book'" font-size="16">flex-end</text>
<rect y="173" fill="#89479B" width="319" height="45"/>
<rect x="59.395" y="184.5" fill="#E88024" width="52.873" height="22"/>
<rect x="122.471" y="184.5" fill="#E88024" width="26.924" height="22"/>
<rect x="160.184" y="184.5" fill="#E88024" width="96.211" height="22"/>
<text transform="matrix(1 0 0 1 8 173)" fill="#89479B" font-family="'GothamRounded-Book'" font-size="16">center</text>
<rect x="0.684" y="248" fill="#89479B" width="319" height="45"/>
<rect y="259.5" fill="#E88024" width="52.873" height="22"/>
<rect x="127.154" y="259.5" fill="#E88024" width="26.924" height="22"/>
<rect x="222.789" y="259.5" fill="#E88024" width="96.211" height="22"/>
<text transform="matrix(1 0 0 1 8.6836 248)" fill="#89479B" font-family="'GothamRounded-Book'" font-size="16">space-between</text>
<rect x="1.025" y="324" fill="#89479B" width="319" height="45"/>
<rect x="32.958" y="335.5" fill="#E88024" width="52.873" height="22"/>
<rect x="122.471" y="335.5" fill="#E88024" width="26.924" height="22"/>
<rect x="185.076" y="335.5" fill="#E88024" width="96.211" height="22"/>
<text transform="matrix(1 0 0 1 9.0254 324)" fill="#89479B" font-family="'GothamRounded-Book'" font-size="16">space-around</text>
</svg>
