<?xml version="1.0" encoding="utf-8"?>
<!-- Generator: Adobe Illustrator 16.0.4, SVG Export Plug-In . SVG Version: 6.00 Build 0)  -->
<!DOCTYPE svg PUBLIC "-//W3C//DTD SVG 1.1//EN" "http://www.w3.org/Graphics/SVG/1.1/DTD/svg11.dtd">
<svg version="1.1" id="Layer_1" xmlns="http://www.w3.org/2000/svg" xmlns:xlink="http://www.w3.org/1999/xlink" x="0px" y="0px"
	 width="47.761px" height="43.667px" viewBox="0 0 47.761 43.667" enable-background="new 0 0 47.761 43.667" xml:space="preserve">
<g>
	<g>
		<path fill="#FFFFFF" d="M40.272,12.503c-0.376,0-0.748-0.169-0.994-0.49c-0.234-0.308-2.411-3.051-6.513-4.867
			c-3.329-1.473-7.422-1.47-10.712-1.456L21.396,5.69c-0.69,0-1.25-0.56-1.25-1.25s0.56-1.25,1.25-1.25l0.651-0.001
			c3.346-0.013,7.915-0.019,11.729,1.671c4.574,2.024,7.039,5.048,7.487,5.633c0.419,0.549,0.314,1.333-0.233,1.753
			C40.804,12.419,40.537,12.503,40.272,12.503z"/>
	</g>
	<path fill="#101416" d="M25.824,0c-1.029,0-2.588,0-4.337,0c-0.327,0-9.661,0-9.999,0C6.614,0,0.832,0,0.832,0
		C0.373,0,0,0.371,0,0.831v42.004c0,0.46,0.373,0.832,0.832,0.832c0,0,5.334,0,10.074,0c0.309,0,9.614,0,9.916,0
		c2.014,0,3.844,0,5.002,0c14.777,0,21.937-10.136,21.937-22.104C47.761,10.579,40.822,0,25.824,0z M23.674,32.416h-1.518H12.57
		V11.251h9.418h1.625c8.426,0,12.35,3.277,12.35,10.312C35.963,28.967,32.058,32.416,23.674,32.416z M41.031,12.246
		c-0.228,0.173-0.494,0.257-0.759,0.257c-0.376,0-0.748-0.169-0.994-0.49c-0.234-0.308-2.411-3.051-6.513-4.867
		c-3.329-1.473-7.422-1.47-10.712-1.456L21.396,5.69c-0.69,0-1.25-0.56-1.25-1.25s0.56-1.25,1.25-1.25l0.651-0.001
		c3.346-0.013,7.915-0.019,11.729,1.671c4.574,2.024,7.039,5.048,7.487,5.633C41.684,11.042,41.579,11.826,41.031,12.246z"/>
</g>
</svg>
