<?xml version="1.0" encoding="utf-8"?>
<!-- Generator: Adobe Illustrator 16.0.4, SVG Export Plug-In . SVG Version: 6.00 Build 0)  -->
<!DOCTYPE svg PUBLIC "-//W3C//DTD SVG 1.1//EN" "http://www.w3.org/Graphics/SVG/1.1/DTD/svg11.dtd">
<svg version="1.1" id="Layer_1" xmlns="http://www.w3.org/2000/svg" xmlns:xlink="http://www.w3.org/1999/xlink" x="0px" y="0px"
	 width="46.352px" height="43.667px" viewBox="0 0 46.352 43.667" enable-background="new 0 0 46.352 43.667" xml:space="preserve">
<g>
	<g>
		<path fill="#FFFFFF" d="M4.066,21.756c-0.69,0-1.25-0.56-1.25-1.25V4.089c0-0.69,0.56-1.25,1.25-1.25h4.582
			c0.69,0,1.25,0.56,1.25,1.25s-0.56,1.25-1.25,1.25H5.316v15.167C5.316,21.196,4.757,21.756,4.066,21.756z"/>
	</g>
	<path fill="#101416" d="M45.52,0H32.744c-0.336,0-0.639,0.201-0.768,0.514l-8.799,18.365l-8.74-18.365
		C14.309,0.201,14.004,0,13.666,0H0.832C0.373,0,0,0.371,0,0.831v42.004c0,0.46,0.373,0.832,0.832,0.832h10.906
		c0.459,0,0.832-0.372,0.832-0.832V23.293l6.229,12.026c0.135,0.304,0.432,0.499,0.764,0.499h7.287c0.332,0,0.631-0.197,0.764-0.501
		l6.168-11.987v19.505c0,0.46,0.373,0.832,0.832,0.832H45.52c0.459,0,0.832-0.372,0.832-0.832V0.831C46.352,0.371,45.979,0,45.52,0z
		 M8.648,5.339H5.316v15.167c0,0.69-0.56,1.25-1.25,1.25s-1.25-0.56-1.25-1.25V4.089c0-0.69,0.56-1.25,1.25-1.25h4.582
		c0.69,0,1.25,0.56,1.25,1.25S9.339,5.339,8.648,5.339z"/>
</g>
</svg>
