<?xml version="1.0" encoding="utf-8"?>
<!-- Generator: Adobe Illustrator 16.0.4, SVG Export Plug-In . SVG Version: 6.00 Build 0)  -->
<!DOCTYPE svg PUBLIC "-//W3C//DTD SVG 1.1//EN" "http://www.w3.org/Graphics/SVG/1.1/DTD/svg11.dtd">
<svg version="1.1" id="Layer_1" xmlns="http://www.w3.org/2000/svg" xmlns:xlink="http://www.w3.org/1999/xlink" x="0px" y="0px"
	 width="45.827px" height="45.335px" viewBox="0 0 45.827 45.335" enable-background="new 0 0 45.827 45.335" xml:space="preserve">
<g>
	<g>
		<path fill="#FFFFFF" d="M5.295,22.452c-0.103,0-0.208-0.012-0.312-0.036c-0.745-0.172-1.209-0.915-1.036-1.659
			c2.01-8.691,10.219-17.489,22.018-17.489c1.908,0,3.807,0.239,5.644,0.712c0.74,0.19,1.186,0.944,0.995,1.685
			c-0.189,0.74-0.942,1.189-1.685,0.995c-1.611-0.414-3.278-0.624-4.954-0.624c-10.354,0-17.559,7.72-19.322,15.345
			C6.494,22.02,5.925,22.452,5.295,22.452z"/>
	</g>
	<path fill="#101416" d="M45.45,38.896l-7.246-8.039c-0.275-0.303-0.693-0.533-1.168-0.48c-0.445,0.022-0.85,0.242-1.111,0.603
		c-2.66,3.665-5.164,5.785-10.079,5.785c-6.096,0-10.521-4.841-10.521-11.511c0-6.524,4.466-11.445,10.389-11.445
		c4.611,0,6.545,1.835,8.972,4.633c0.269,0.31,0.657,0.494,1.086,0.506c0.425-0.003,0.797-0.156,1.075-0.443l7.576-7.774
		c0.534-0.548,0.562-1.399,0.064-1.979C39.451,2.862,33.117,0,25.122,0C10.8,0,0,10.856,0,25.253c0,8.18,3.217,15.269,9.059,19.96
		c0.098,0.079,0.22,0.122,0.347,0.122h31.469c0.125,0,0.246-0.042,0.345-0.12c1.619-1.29,3.071-2.79,4.317-4.457
		C45.954,40.198,45.919,39.415,45.45,38.896z M6.642,21.38c-0.147,0.64-0.717,1.072-1.347,1.072c-0.103,0-0.208-0.012-0.312-0.036
		c-0.745-0.172-1.209-0.915-1.036-1.659c2.01-8.691,10.219-17.489,22.018-17.489c1.908,0,3.807,0.239,5.644,0.712
		c0.74,0.19,1.186,0.944,0.995,1.685c-0.189,0.74-0.942,1.189-1.685,0.995c-1.611-0.414-3.278-0.624-4.954-0.624
		C15.609,6.035,8.405,13.755,6.642,21.38z"/>
</g>
</svg>
