<?xml version="1.0" standalone="no"?><!DOCTYPE svg PUBLIC "-//W3C//DTD SVG 1.1//EN" "http://www.w3.org/Graphics/SVG/1.1/DTD/svg11.dtd"><svg width="100%" height="100%" viewBox="0 0 367 80" version="1.1" xmlns="http://www.w3.org/2000/svg" xmlns:xlink="http://www.w3.org/1999/xlink" xml:space="preserve" style="fill-rule:evenodd;clip-rule:evenodd;stroke-linejoin:round;stroke-miterlimit:1.41421;"><g><path d="M38.194,24.02l0,-6.012l-4.44,0l0,-6.011l-4.442,0l0,-6.011l-8.883,0l0,6.011l-4.44,0l0,6.011l-4.442,0l0,6.012l-5.589,0l0,44.33l37.822,0l0,-38.317l0,-0.817l0,-5.196l-5.586,0Z" style="fill:#fff;fill-rule:nonzero;"/><path d="M42.348,28.601l-34.957,0l0,-3.149l4.156,0c0.791,0 1.432,-0.642 1.432,-1.432l0,-4.579l3.01,0c0.792,0 1.432,-0.642 1.432,-1.433l0,-4.578l3.008,0c0.792,0 1.432,-0.642 1.432,-1.433l0,-4.578l6.018,0l0,4.578c0,0.791 0.642,1.433 1.433,1.433l3.01,0l0,4.578c0,0.791 0.642,1.433 1.432,1.433l3.008,0l0,4.579c0,0.79 0.642,1.432 1.432,1.432l4.154,0l0,3.149ZM42.348,66.916l-9.406,0l0,-4.804c0,-0.791 -0.642,-1.432 -1.433,-1.432l-13.278,0c-0.79,0 -1.432,0.641 -1.432,1.432l0,4.804l-9.408,0l0,-35.451l34.957,0l0,35.451ZM30.077,66.916l-3.775,0l0,-3.372l3.775,0l0,3.372ZM23.437,66.916l-3.773,0l0,-3.372l3.773,0l0,3.372ZM43.78,22.587l-4.153,0l0,-4.579c0,-0.791 -0.642,-1.432 -1.433,-1.432l-3.008,0l0,-4.579c0,-0.791 -0.641,-1.432 -1.432,-1.432l-3.01,0l0,-4.579c0,-0.792 -0.642,-1.432 -1.432,-1.432l-8.883,0c-0.79,0 -1.432,0.64 -1.432,1.432l0,4.579l-3.008,0c-0.791,0 -1.432,0.641 -1.432,1.432l0,4.579l-3.01,0c-0.791,0 -1.433,0.641 -1.433,1.432l0,4.579l-4.156,0c-0.79,0 -1.432,0.642 -1.432,1.433l0,44.329c0,0.792 0.642,1.432 1.432,1.432l37.822,0c0.791,0 1.433,-0.64 1.433,-1.432l0,-44.329c0,-0.791 -0.642,-1.433 -1.433,-1.433" style="fill:#231f20;fill-rule:nonzero;"/><path d="M30.077,55.367l-3.776,0l0,-13.659l3.776,0l0,13.659ZM23.437,55.367l-3.774,0l0,-13.659l3.774,0l0,13.659ZM31.509,38.844l-13.278,0c-0.791,0 -1.432,0.641 -1.432,1.432l0,16.523c0,0.792 0.641,1.432 1.432,1.432l13.278,0c0.792,0 1.432,-0.64 1.432,-1.432l0,-16.523c0,-0.791 -0.64,-1.432 -1.432,-1.432" style="fill:#231f20;fill-rule:nonzero;"/><path d="M26.579,17.661l-2.775,0c-0.474,0 -0.859,0.385 -0.859,0.86l0,4.675c0,0.474 0.385,0.859 0.859,0.859l2.775,0c0.474,0 0.86,-0.385 0.86,-0.859l0,-4.675c0,-0.475 -0.386,-0.86 -0.86,-0.86" style="fill:#231f20;fill-rule:nonzero;"/><path d="M9.32,62.289c0.474,0 0.859,-0.385 0.859,-0.86c0,-0.474 -0.385,-0.859 -0.859,-0.859c-0.475,0 -0.86,0.385 -0.86,0.859c0,0.475 0.385,0.86 0.86,0.86" style="fill:#231f20;fill-rule:nonzero;"/><path d="M9.32,48.539c0.474,0 0.859,-0.385 0.859,-0.86c0,-0.474 -0.385,-0.859 -0.859,-0.859c-0.475,0 -0.86,0.385 -0.86,0.859c0,0.475 0.385,0.86 0.86,0.86" style="fill:#231f20;fill-rule:nonzero;"/><path d="M9.32,55.414c0.474,0 0.859,-0.385 0.859,-0.86c0,-0.474 -0.385,-0.859 -0.859,-0.859c-0.475,0 -0.86,0.385 -0.86,0.859c0,0.475 0.385,0.86 0.86,0.86" style="fill:#231f20;fill-rule:nonzero;"/><path d="M9.32,41.664c0.474,0 0.859,-0.385 0.859,-0.86c0,-0.474 -0.385,-0.859 -0.859,-0.859c-0.475,0 -0.86,0.385 -0.86,0.859c0,0.475 0.385,0.86 0.86,0.86" style="fill:#231f20;fill-rule:nonzero;"/><path d="M11.039,64.008c-0.475,0 -0.86,0.385 -0.86,0.859c0,0.474 0.385,0.859 0.86,0.859c0.474,0 0.859,-0.385 0.859,-0.859c0,-0.474 -0.385,-0.859 -0.859,-0.859" style="fill:#231f20;fill-rule:nonzero;"/><path d="M11.039,51.976c0.474,0 0.859,-0.385 0.859,-0.859c0,-0.474 -0.385,-0.859 -0.859,-0.859c-0.475,0 -0.86,0.385 -0.86,0.859c0,0.474 0.385,0.859 0.86,0.859" style="fill:#231f20;fill-rule:nonzero;"/><path d="M11.039,43.382c-0.475,0 -0.86,0.385 -0.86,0.86c0,0.474 0.385,0.859 0.86,0.859c0.474,0 0.859,-0.385 0.859,-0.859c0,-0.475 -0.385,-0.86 -0.859,-0.86" style="fill:#231f20;fill-rule:nonzero;"/><path d="M11.039,58.851c0.474,0 0.859,-0.385 0.859,-0.859c0,-0.474 -0.385,-0.859 -0.859,-0.859c-0.475,0 -0.86,0.385 -0.86,0.859c0,0.474 0.385,0.859 0.86,0.859" style="fill:#231f20;fill-rule:nonzero;"/><path d="M11.039,38.226c0.474,0 0.859,-0.385 0.859,-0.859c0,-0.475 -0.385,-0.86 -0.859,-0.86c-0.475,0 -0.86,0.385 -0.86,0.86c0,0.474 0.385,0.859 0.86,0.859" style="fill:#231f20;fill-rule:nonzero;"/><path d="M9.32,34.789c0.474,0 0.859,-0.385 0.859,-0.86c0,-0.474 -0.385,-0.859 -0.859,-0.859c-0.475,0 -0.86,0.385 -0.86,0.859c0,0.475 0.385,0.86 0.86,0.86" style="fill:#231f20;fill-rule:nonzero;"/><path d="M14.476,64.008c-0.474,0 -0.859,0.385 -0.859,0.859c0,0.474 0.385,0.859 0.859,0.859c0.475,0 0.86,-0.385 0.86,-0.859c0,-0.474 -0.385,-0.859 -0.86,-0.859" style="fill:#231f20;fill-rule:nonzero;"/><path d="M36.176,64.008c-0.475,0 -0.86,0.385 -0.86,0.859c0,0.474 0.385,0.859 0.86,0.859c0.474,0 0.859,-0.385 0.859,-0.859c0,-0.474 -0.385,-0.859 -0.859,-0.859" style="fill:#231f20;fill-rule:nonzero;"/><path d="M12.757,60.57c-0.474,0 -0.859,0.385 -0.859,0.859c0,0.475 0.385,0.86 0.859,0.86c0.475,0 0.86,-0.385 0.86,-0.86c0,-0.474 -0.385,-0.859 -0.86,-0.859" style="fill:#231f20;fill-rule:nonzero;"/><path d="M14.476,50.258c-0.474,0 -0.859,0.385 -0.859,0.859c0,0.474 0.385,0.859 0.859,0.859c0.475,0 0.86,-0.385 0.86,-0.859c0,-0.474 -0.385,-0.859 -0.86,-0.859" style="fill:#231f20;fill-rule:nonzero;"/><path d="M14.476,43.382c-0.474,0 -0.859,0.385 -0.859,0.86c0,0.474 0.385,0.859 0.859,0.859c0.475,0 0.86,-0.385 0.86,-0.859c0,-0.475 -0.385,-0.86 -0.86,-0.86" style="fill:#231f20;fill-rule:nonzero;"/><path d="M12.757,48.539c0.475,0 0.86,-0.385 0.86,-0.86c0,-0.474 -0.385,-0.859 -0.86,-0.859c-0.474,0 -0.859,0.385 -0.859,0.859c0,0.475 0.385,0.86 0.859,0.86" style="fill:#231f20;fill-rule:nonzero;"/><path d="M14.476,57.133c-0.474,0 -0.859,0.385 -0.859,0.859c0,0.474 0.385,0.859 0.859,0.859c0.475,0 0.86,-0.385 0.86,-0.859c0,-0.474 -0.385,-0.859 -0.86,-0.859" style="fill:#231f20;fill-rule:nonzero;"/><path d="M12.757,53.695c-0.474,0 -0.859,0.385 -0.859,0.859c0,0.475 0.385,0.86 0.859,0.86c0.475,0 0.86,-0.385 0.86,-0.86c0,-0.474 -0.385,-0.859 -0.86,-0.859" style="fill:#231f20;fill-rule:nonzero;"/><path d="M14.476,38.226c0.475,0 0.86,-0.385 0.86,-0.859c0,-0.475 -0.385,-0.86 -0.86,-0.86c-0.474,0 -0.859,0.385 -0.859,0.86c0,0.474 0.385,0.859 0.859,0.859" style="fill:#231f20;fill-rule:nonzero;"/><path d="M17.914,38.226c0.474,0 0.859,-0.385 0.859,-0.859c0,-0.475 -0.385,-0.86 -0.859,-0.86c-0.475,0 -0.86,0.385 -0.86,0.86c0,0.474 0.385,0.859 0.86,0.859" style="fill:#231f20;fill-rule:nonzero;"/><path d="M21.351,38.226c0.475,0 0.86,-0.385 0.86,-0.859c0,-0.475 -0.385,-0.86 -0.86,-0.86c-0.474,0 -0.859,0.385 -0.859,0.86c0,0.474 0.385,0.859 0.859,0.859" style="fill:#231f20;fill-rule:nonzero;"/><path d="M24.789,38.226c0.474,0 0.859,-0.385 0.859,-0.859c0,-0.475 -0.385,-0.86 -0.859,-0.86c-0.475,0 -0.86,0.385 -0.86,0.86c0,0.474 0.385,0.859 0.86,0.859" style="fill:#231f20;fill-rule:nonzero;"/><path d="M28.226,38.226c0.475,0 0.86,-0.385 0.86,-0.859c0,-0.475 -0.385,-0.86 -0.86,-0.86c-0.474,0 -0.859,0.385 -0.859,0.86c0,0.474 0.385,0.859 0.859,0.859" style="fill:#231f20;fill-rule:nonzero;"/><path d="M31.664,38.226c0.474,0 0.859,-0.385 0.859,-0.859c0,-0.475 -0.385,-0.86 -0.859,-0.86c-0.475,0 -0.86,0.385 -0.86,0.86c0,0.474 0.385,0.859 0.86,0.859" style="fill:#231f20;fill-rule:nonzero;"/><path d="M12.757,41.664c0.475,0 0.86,-0.385 0.86,-0.86c0,-0.474 -0.385,-0.859 -0.86,-0.859c-0.474,0 -0.859,0.385 -0.859,0.859c0,0.475 0.385,0.86 0.859,0.86" style="fill:#231f20;fill-rule:nonzero;"/><path d="M39.613,64.008c-0.474,0 -0.859,0.385 -0.859,0.859c0,0.474 0.385,0.859 0.859,0.859c0.474,0 0.859,-0.385 0.859,-0.859c0,-0.474 -0.385,-0.859 -0.859,-0.859" style="fill:#231f20;fill-rule:nonzero;"/><path d="M35.03,51.976c0.474,0 0.859,-0.385 0.859,-0.859c0,-0.474 -0.385,-0.859 -0.859,-0.859c-0.475,0 -0.86,0.385 -0.86,0.859c0,0.474 0.385,0.859 0.86,0.859" style="fill:#231f20;fill-rule:nonzero;"/><path d="M35.03,43.382c-0.475,0 -0.86,0.385 -0.86,0.86c0,0.474 0.385,0.859 0.86,0.859c0.474,0 0.859,-0.385 0.859,-0.859c0,-0.475 -0.385,-0.86 -0.859,-0.86" style="fill:#231f20;fill-rule:nonzero;"/><path d="M35.889,57.992c0,-0.474 -0.385,-0.859 -0.859,-0.859c-0.475,0 -0.86,0.385 -0.86,0.859c0,0.474 0.385,0.859 0.86,0.859c0.474,0 0.859,-0.385 0.859,-0.859" style="fill:#231f20;fill-rule:nonzero;"/><path d="M12.757,34.789c0.475,0 0.86,-0.385 0.86,-0.86c0,-0.474 -0.385,-0.859 -0.86,-0.859c-0.474,0 -0.859,0.385 -0.859,0.859c0,0.475 0.385,0.86 0.859,0.86" style="fill:#231f20;fill-rule:nonzero;"/><path d="M16.195,34.789c0.474,0 0.859,-0.385 0.859,-0.86c0,-0.474 -0.385,-0.859 -0.859,-0.859c-0.474,0 -0.859,0.385 -0.859,0.859c0,0.475 0.385,0.86 0.859,0.86" style="fill:#231f20;fill-rule:nonzero;"/><path d="M19.632,34.789c0.475,0 0.86,-0.385 0.86,-0.86c0,-0.474 -0.385,-0.859 -0.86,-0.859c-0.474,0 -0.859,0.385 -0.859,0.859c0,0.475 0.385,0.86 0.859,0.86" style="fill:#231f20;fill-rule:nonzero;"/><path d="M23.07,34.789c0.474,0 0.859,-0.385 0.859,-0.86c0,-0.474 -0.385,-0.859 -0.859,-0.859c-0.474,0 -0.859,0.385 -0.859,0.859c0,0.475 0.385,0.86 0.859,0.86" style="fill:#231f20;fill-rule:nonzero;"/><path d="M26.508,34.789c0.474,0 0.859,-0.385 0.859,-0.86c0,-0.474 -0.385,-0.859 -0.859,-0.859c-0.475,0 -0.86,0.385 -0.86,0.859c0,0.475 0.385,0.86 0.86,0.86" style="fill:#231f20;fill-rule:nonzero;"/><path d="M29.945,34.789c0.474,0 0.859,-0.385 0.859,-0.86c0,-0.474 -0.385,-0.859 -0.859,-0.859c-0.474,0 -0.859,0.385 -0.859,0.859c0,0.475 0.385,0.86 0.859,0.86" style="fill:#231f20;fill-rule:nonzero;"/><path d="M35.101,38.226c0.475,0 0.86,-0.385 0.86,-0.859c0,-0.475 -0.385,-0.86 -0.86,-0.86c-0.474,0 -0.859,0.385 -0.859,0.86c0,0.474 0.385,0.859 0.859,0.859" style="fill:#231f20;fill-rule:nonzero;"/><path d="M33.383,34.789c0.474,0 0.859,-0.385 0.859,-0.86c0,-0.474 -0.385,-0.859 -0.859,-0.859c-0.475,0 -0.86,0.385 -0.86,0.859c0,0.475 0.385,0.86 0.86,0.86" style="fill:#231f20;fill-rule:nonzero;"/><path d="M36.748,60.57c-0.474,0 -0.859,0.385 -0.859,0.859c0,0.475 0.385,0.86 0.859,0.86c0.475,0 0.86,-0.385 0.86,-0.86c0,-0.474 -0.385,-0.859 -0.86,-0.859" style="fill:#231f20;fill-rule:nonzero;"/><path d="M40.186,60.57c-0.474,0 -0.859,0.385 -0.859,0.859c0,0.475 0.385,0.86 0.859,0.86c0.474,0 0.859,-0.385 0.859,-0.86c0,-0.474 -0.385,-0.859 -0.859,-0.859" style="fill:#231f20;fill-rule:nonzero;"/><path d="M38.467,50.258c-0.474,0 -0.859,0.385 -0.859,0.859c0,0.474 0.385,0.859 0.859,0.859c0.475,0 0.86,-0.385 0.86,-0.859c0,-0.474 -0.385,-0.859 -0.86,-0.859" style="fill:#231f20;fill-rule:nonzero;"/><path d="M38.467,43.382c-0.474,0 -0.859,0.385 -0.859,0.86c0,0.474 0.385,0.859 0.859,0.859c0.475,0 0.86,-0.385 0.86,-0.859c0,-0.475 -0.385,-0.86 -0.86,-0.86" style="fill:#231f20;fill-rule:nonzero;"/><path d="M36.748,48.539c0.475,0 0.86,-0.385 0.86,-0.86c0,-0.474 -0.385,-0.859 -0.86,-0.859c-0.474,0 -0.859,0.385 -0.859,0.859c0,0.475 0.385,0.86 0.859,0.86" style="fill:#231f20;fill-rule:nonzero;"/><path d="M40.186,46.82c-0.474,0 -0.859,0.385 -0.859,0.859c0,0.475 0.385,0.86 0.859,0.86c0.474,0 0.859,-0.385 0.859,-0.86c0,-0.474 -0.385,-0.859 -0.859,-0.859" style="fill:#231f20;fill-rule:nonzero;"/><path d="M39.327,57.992c0,-0.474 -0.385,-0.859 -0.86,-0.859c-0.474,0 -0.859,0.385 -0.859,0.859c0,0.474 0.385,0.859 0.859,0.859c0.475,0 0.86,-0.385 0.86,-0.859" style="fill:#231f20;fill-rule:nonzero;"/><path d="M36.748,53.695c-0.474,0 -0.859,0.385 -0.859,0.859c0,0.475 0.385,0.86 0.859,0.86c0.475,0 0.86,-0.385 0.86,-0.86c0,-0.474 -0.385,-0.859 -0.86,-0.859" style="fill:#231f20;fill-rule:nonzero;"/><path d="M40.186,53.695c-0.474,0 -0.859,0.385 -0.859,0.859c0,0.475 0.385,0.86 0.859,0.86c0.474,0 0.859,-0.385 0.859,-0.86c0,-0.474 -0.385,-0.859 -0.859,-0.859" style="fill:#231f20;fill-rule:nonzero;"/><path d="M38.467,38.226c0.475,0 0.86,-0.385 0.86,-0.859c0,-0.475 -0.385,-0.86 -0.86,-0.86c-0.474,0 -0.859,0.385 -0.859,0.86c0,0.474 0.385,0.859 0.859,0.859" style="fill:#231f20;fill-rule:nonzero;"/><path d="M36.748,39.945c-0.474,0 -0.859,0.385 -0.859,0.859c0,0.475 0.385,0.86 0.859,0.86c0.475,0 0.86,-0.385 0.86,-0.86c0,-0.474 -0.385,-0.859 -0.86,-0.859" style="fill:#231f20;fill-rule:nonzero;"/><path d="M40.186,39.945c-0.474,0 -0.859,0.385 -0.859,0.859c0,0.475 0.385,0.86 0.859,0.86c0.474,0 0.859,-0.385 0.859,-0.86c0,-0.474 -0.385,-0.859 -0.859,-0.859" style="fill:#231f20;fill-rule:nonzero;"/><path d="M36.748,34.789c0.475,0 0.86,-0.385 0.86,-0.86c0,-0.474 -0.385,-0.859 -0.86,-0.859c-0.474,0 -0.859,0.385 -0.859,0.859c0,0.475 0.385,0.86 0.859,0.86" style="fill:#231f20;fill-rule:nonzero;"/><path d="M40.186,34.789c0.474,0 0.859,-0.385 0.859,-0.86c0,-0.474 -0.385,-0.859 -0.859,-0.859c-0.474,0 -0.859,0.385 -0.859,0.859c0,0.475 0.385,0.86 0.859,0.86" style="fill:#231f20;fill-rule:nonzero;"/></g><g><path d="M51.9,44.7c-0.119,0.012 -0.241,0.01 -0.364,-0.005c-0.878,-0.111 -1.498,-0.913 -1.387,-1.789c1.3,-10.24 9.724,-21.326 23.306,-22.702c2.196,-0.223 4.41,-0.168 6.579,0.161c0.875,0.134 1.476,0.95 1.343,1.824c-0.132,0.874 -0.947,1.478 -1.824,1.342c-1.902,-0.289 -3.846,-0.336 -5.775,-0.141c-11.92,1.208 -19.313,10.935 -20.453,19.919c-0.096,0.752 -0.7,1.317 -1.425,1.391" style="fill:#fff;fill-rule:nonzero;"/><path d="M53.325,43.308c-0.095,0.754 -0.7,1.318 -1.426,1.392c-0.117,0.011 -0.24,0.011 -0.363,-0.005c-0.878,-0.112 -1.498,-0.913 -1.386,-1.789c1.299,-10.239 9.722,-21.325 23.305,-22.701c2.196,-0.223 4.41,-0.169 6.58,0.161c0.874,0.132 1.474,0.949 1.342,1.823c-0.133,0.874 -0.946,1.479 -1.824,1.341c-1.903,-0.288 -3.846,-0.335 -5.775,-0.14c-11.92,1.208 -19.312,10.935 -20.453,19.918M100.043,58.945l-9.28,-8.409c-0.352,-0.317 -0.86,-0.534 -1.399,-0.417c-0.511,0.078 -0.951,0.377 -1.21,0.823c-2.635,4.53 -5.27,7.262 -10.928,7.836c-7.017,0.711 -12.675,-4.346 -13.453,-12.024c-0.761,-7.51 3.805,-13.696 10.623,-14.387c5.31,-0.538 7.749,1.349 10.869,4.287c0.345,0.324 0.814,0.492 1.309,0.454c0.489,-0.053 0.899,-0.272 1.186,-0.635l7.814,-9.833c0.551,-0.693 0.484,-1.677 -0.156,-2.285c-6.484,-6.191 -14.109,-8.747 -23.314,-7.814c-16.487,1.671 -27.653,15.429 -25.973,32.001c0.954,9.416 5.484,17.201 12.756,21.92c0.122,0.079 0.268,0.115 0.414,0.1l36.225,-3.671c0.143,-0.014 0.279,-0.077 0.383,-0.178c1.713,-1.674 3.209,-3.57 4.451,-5.635c0.415,-0.693 0.283,-1.59 -0.317,-2.133" style="fill:#231f20;fill-rule:nonzero;"/></g><g><path d="M102.23,31.815c2.06,-3.602 -4.689,-9.068 -4.689,-9.068c0,0 -5.936,-4.385 -3.234,-8.196c3.057,-4.164 7.443,-1.773 9.703,1.107c2.26,2.881 6.735,5.494 8.02,0.223c1.284,-5.273 -3.412,-14.977 6.424,-14.047c9.836,0.932 4.962,9.837 3.279,12.673c-1.684,2.835 3.367,4.873 7.842,2.923c4.475,-1.949 6.07,1.064 4.918,3.945c-0.687,1.772 -0.371,4.885 3.08,4.452c3.176,-0.399 4.806,3.921 1.155,5.529c-1.219,0.537 -4.512,0.784 -7.25,0.474c-10.964,10.124 -25.06,5.804 -29.248,-0.015" style="fill:#fff;fill-rule:nonzero;"/><path d="M133.264,55.373l0,-14.408c2.894,0.38 5.168,3.445 5.168,7.202c0,3.758 -2.274,6.823 -5.168,7.206M131.696,30.07c-0.124,-0.012 -0.247,-0.014 -0.37,-0.002c-0.023,0 -0.042,0.002 -0.063,0.005c-0.103,0.014 -0.205,0.034 -0.305,0.066c-0.039,0.012 -0.076,0.029 -0.114,0.043c-0.069,0.027 -0.139,0.044 -0.205,0.08c-3.806,2.084 -8.203,3.186 -12.712,3.186c-0.346,0 -0.687,-0.007 -1.154,-0.019c-0.337,0.012 -0.676,0.019 -1.022,0.019c-3.991,0 -7.904,-0.881 -11.405,-2.547c0.506,-4.347 -4.985,-8.96 -5.751,-9.578c-0.045,-0.033 -4.467,-3.456 -2.859,-5.724c0.75,-1.02 1.572,-1.517 2.516,-1.517c1.377,0 3.091,1.049 4.364,2.671c1.493,1.903 3.987,3.933 6.515,3.933c1.068,0 3.657,-0.427 4.621,-4.387c0.439,-1.803 0.293,-3.89 0.153,-5.909c-0.17,-2.456 -0.347,-4.997 0.646,-6.064c0.61,-0.654 1.882,-0.903 3.736,-0.726c2.177,0.205 3.545,0.834 4.072,1.87c0.461,0.907 0.796,3.17 -2.15,8.133c-0.728,1.223 -0.769,2.586 -0.115,3.735c0.924,1.625 3.154,2.635 5.816,2.635c1.483,0 2.995,-0.316 4.372,-0.918c0.898,-0.391 1.499,-0.472 1.846,-0.472c0.581,0 0.73,0.219 0.778,0.291c0.213,0.313 0.277,1.004 -0.066,1.859c-0.513,1.33 -0.718,3.461 0.401,5.095c0.801,1.169 2.118,1.811 3.709,1.811c0.264,0 0.545,-0.016 0.842,-0.054c0.696,-0.086 1.136,0.354 1.231,0.803c0.15,0.72 -0.567,1.151 -1.008,1.345c-0.404,0.179 -1.845,0.459 -3.997,0.459c-0.805,0 -1.608,-0.041 -2.322,-0.122M133.264,37.379l0,-3.669c0.254,0.008 0.496,0.027 0.754,0.027c0.869,0 3.824,-0.054 5.425,-0.759c2.316,-1.02 3.513,-3.109 3.048,-5.322c-0.492,-2.334 -2.613,-3.903 -5.14,-3.587c-0.141,0.018 -0.276,0.025 -0.401,0.025c-0.598,0 -0.733,-0.195 -0.784,-0.268c-0.254,-0.372 -0.264,-1.185 -0.028,-1.795c0.743,-1.851 0.632,-3.777 -0.297,-5.145c-1.311,-1.938 -3.936,-2.406 -6.974,-1.079c-0.934,0.407 -1.956,0.621 -2.957,0.621c-1.689,0 -2.645,-0.609 -2.737,-0.824c0.002,-0.017 0.019,-0.083 0.084,-0.194c2.906,-4.895 3.668,-8.78 2.261,-11.546c-1.113,-2.19 -3.434,-3.464 -6.896,-3.795c-0.506,-0.046 -0.975,-0.069 -1.414,-0.069c-2.302,0 -4.067,0.642 -5.248,1.908c-2.048,2.195 -1.815,5.517 -1.59,8.73c0.121,1.748 0.247,3.554 -0.062,4.823c-0.272,1.116 -0.668,1.68 -1.177,1.68c-0.971,0 -2.573,-1.107 -3.726,-2.576c-1.979,-2.522 -4.653,-4.028 -7.153,-4.028c-1.46,0 -3.576,0.515 -5.39,2.988c-2.928,4.128 0.903,8.635 3.565,10.601c1.944,1.573 5.191,5.187 4.264,6.809l-0.002,0.003c-0.078,0.139 -0.136,0.291 -0.175,0.448c-0.015,0.057 -0.015,0.115 -0.023,0.175c-0.013,0.085 -0.034,0.167 -0.034,0.255l0,33.343c0,0.646 0.353,1.243 0.922,1.553c4.62,2.53 9.656,3.867 14.566,3.867c0.322,0 0.641,-0.006 0.828,-0.017c0.318,0.011 0.637,0.017 0.96,0.017c4.94,0 9.993,-1.339 14.611,-3.867c0.567,-0.31 0.92,-0.907 0.92,-1.553l0,-6.202c4.854,-0.359 8.712,-5.053 8.712,-10.79c0,-5.735 -3.858,-10.429 -8.712,-10.788" style="fill:#231f20;fill-rule:nonzero;"/><path d="M104.453,24.254c-0.587,0 -1.063,0.475 -1.063,1.064c0,0.587 0.476,1.063 1.063,1.063c0.587,0 1.064,-0.476 1.064,-1.063c0,-0.589 -0.477,-1.064 -1.064,-1.064" style="fill:#231f20;fill-rule:nonzero;"/><path d="M102.327,20.001c-0.587,0 -1.064,0.475 -1.064,1.063c0,0.587 0.477,1.064 1.064,1.064c0.587,0 1.063,-0.477 1.063,-1.064c0,-0.588 -0.476,-1.063 -1.063,-1.063" style="fill:#231f20;fill-rule:nonzero;"/><path d="M100.2,15.747c-0.587,0 -1.063,0.475 -1.063,1.064c0,0.587 0.476,1.063 1.063,1.063c0.587,0 1.063,-0.476 1.063,-1.063c0,-0.589 -0.476,-1.064 -1.063,-1.064" style="fill:#231f20;fill-rule:nonzero;"/><path d="M108.707,24.254c-0.587,0 -1.064,0.475 -1.064,1.064c0,0.587 0.477,1.063 1.064,1.063c0.587,0 1.063,-0.476 1.063,-1.063c0,-0.589 -0.476,-1.064 -1.063,-1.064" style="fill:#231f20;fill-rule:nonzero;"/><path d="M110.833,28.508c-0.586,0 -1.063,0.475 -1.063,1.063c0,0.587 0.477,1.063 1.063,1.063c0.587,0 1.064,-0.476 1.064,-1.063c0,-0.588 -0.477,-1.063 -1.064,-1.063" style="fill:#231f20;fill-rule:nonzero;"/><path d="M106.58,28.508c-0.587,0 -1.063,0.475 -1.063,1.063c0,0.587 0.476,1.063 1.063,1.063c0.587,0 1.063,-0.476 1.063,-1.063c0,-0.588 -0.476,-1.063 -1.063,-1.063" style="fill:#231f20;fill-rule:nonzero;"/><path d="M115.087,28.508c-0.587,0 -1.063,0.475 -1.063,1.063c0,0.587 0.476,1.063 1.063,1.063c0.587,0 1.063,-0.476 1.063,-1.063c0,-0.588 -0.476,-1.063 -1.063,-1.063" style="fill:#231f20;fill-rule:nonzero;"/><path d="M119.34,28.508c-0.587,0 -1.063,0.475 -1.063,1.063c0,0.587 0.476,1.063 1.063,1.063c0.587,0 1.064,-0.476 1.064,-1.063c0,-0.588 -0.477,-1.063 -1.064,-1.063" style="fill:#231f20;fill-rule:nonzero;"/><path d="M123.594,28.508c-0.587,0 -1.064,0.475 -1.064,1.063c0,0.587 0.477,1.063 1.064,1.063c0.587,0 1.063,-0.476 1.063,-1.063c0,-0.588 -0.476,-1.063 -1.063,-1.063" style="fill:#231f20;fill-rule:nonzero;"/><path d="M125.721,24.254c-0.587,0 -1.064,0.475 -1.064,1.064c0,0.587 0.477,1.063 1.064,1.063c0.587,0 1.063,-0.476 1.063,-1.063c0,-0.589 -0.476,-1.064 -1.063,-1.064" style="fill:#231f20;fill-rule:nonzero;"/><path d="M127.847,28.508c-0.587,0 -1.063,0.475 -1.063,1.063c0,0.587 0.476,1.063 1.063,1.063c0.587,0 1.064,-0.476 1.064,-1.063c0,-0.588 -0.477,-1.063 -1.064,-1.063" style="fill:#231f20;fill-rule:nonzero;"/><path d="M129.974,24.254c-0.587,0 -1.063,0.475 -1.063,1.064c0,0.587 0.476,1.063 1.063,1.063c0.587,0 1.063,-0.476 1.063,-1.063c0,-0.589 -0.476,-1.064 -1.063,-1.064" style="fill:#231f20;fill-rule:nonzero;"/></g><g><path d="M149.169,43.805c-0.804,0 -1.456,-0.653 -1.456,-1.457l0,-19.133c0,-0.804 0.652,-1.457 1.456,-1.457l5.341,0c0.804,0 1.456,0.653 1.456,1.457c0,0.804 -0.652,1.457 -1.456,1.457l-3.884,0l0,17.676c0,0.804 -0.652,1.457 -1.457,1.457" style="fill:#fff;fill-rule:nonzero;"/><path d="M154.51,24.672l-3.884,0l0,17.676c0,0.804 -0.652,1.457 -1.456,1.457c-0.805,0 -1.457,-0.653 -1.457,-1.457l0,-19.133c0,-0.804 0.652,-1.457 1.457,-1.457l5.34,0c0.804,0 1.456,0.653 1.456,1.457c0,0.804 -0.652,1.457 -1.456,1.457M197.481,18.45l-14.889,0c-0.391,0 -0.744,0.234 -0.895,0.599l-10.255,21.403l-10.186,-21.403c-0.15,-0.365 -0.505,-0.599 -0.898,-0.599l-14.958,0c-0.534,0 -0.969,0.432 -0.969,0.968l0,48.954c0,0.536 0.435,0.969 0.969,0.969l12.711,0c0.535,0 0.97,-0.433 0.97,-0.969l0,-22.776l7.258,14.016c0.157,0.354 0.503,0.582 0.89,0.582l8.493,0c0.387,0 0.735,-0.23 0.89,-0.583l7.189,-13.972l0,22.733c0,0.536 0.435,0.969 0.97,0.969l12.71,0c0.535,0 0.97,-0.433 0.97,-0.969l0,-48.954c0,-0.536 -0.435,-0.968 -0.97,-0.968" style="fill:#231f20;fill-rule:nonzero;"/></g><g><path d="M250.359,44.366l7.109,-5.321l-7.109,-5.321l4.105,-7.876l-8.719,-1.696l0.279,-8.878l-8.594,2.243l-3.6,-8.12l-6.766,5.761l-6.764,-5.761l-3.6,8.12l-8.593,-2.243l0.28,8.878l-8.719,1.696l4.103,7.876l-7.108,5.321l7.108,5.321l-4.103,7.876l8.719,1.697l-0.28,8.875l10.881,-2.819c0.386,3.653 0.096,9.637 0.096,9.637c0,0 7.387,5.725 8.022,6.149c0.637,-0.424 8.023,-6.149 8.023,-6.149c0,0 -0.29,-5.961 0.094,-9.616l10.801,2.8l-0.279,-8.877l8.719,-1.697l-4.105,-7.876Z" style="fill:#fff;fill-rule:nonzero;"/><path d="M214.949,42.344c-0.468,0 -0.848,0.38 -0.848,0.848c0,0.469 0.38,0.849 0.848,0.849c0.468,0 0.848,-0.38 0.848,-0.849c0,-0.468 -0.38,-0.848 -0.848,-0.848" style="fill:#231f20;fill-rule:nonzero;"/><path d="M218.342,50.826c0.468,0 0.848,-0.38 0.848,-0.848c0,-0.468 -0.38,-0.848 -0.848,-0.848c-0.468,0 -0.848,0.38 -0.848,0.848c0,0.468 0.38,0.848 0.848,0.848" style="fill:#231f20;fill-rule:nonzero;"/><path d="M216.645,45.737c-0.468,0 -0.848,0.38 -0.848,0.848c0,0.469 0.38,0.848 0.848,0.848c0.469,0 0.849,-0.379 0.849,-0.848c0,-0.468 -0.38,-0.848 -0.849,-0.848" style="fill:#231f20;fill-rule:nonzero;"/><path d="M220.038,54.219c0.469,0 0.849,-0.38 0.849,-0.848c0,-0.468 -0.38,-0.848 -0.849,-0.848c-0.468,0 -0.848,0.38 -0.848,0.848c0,0.468 0.38,0.848 0.848,0.848" style="fill:#231f20;fill-rule:nonzero;"/><path d="M216.645,40.648c0.469,0 0.849,-0.38 0.849,-0.848c0,-0.469 -0.38,-0.849 -0.849,-0.849c-0.468,0 -0.848,0.38 -0.848,0.849c0,0.468 0.38,0.848 0.848,0.848" style="fill:#231f20;fill-rule:nonzero;"/><path d="M213.253,38.951c-0.469,0 -0.849,0.38 -0.849,0.849c0,0.468 0.38,0.848 0.849,0.848c0.468,0 0.848,-0.38 0.848,-0.848c0,-0.469 -0.38,-0.849 -0.848,-0.849" style="fill:#231f20;fill-rule:nonzero;"/><path d="M214.949,35.559c-0.468,0 -0.848,0.38 -0.848,0.848c0,0.468 0.38,0.848 0.848,0.848c0.468,0 0.848,-0.38 0.848,-0.848c0,-0.468 -0.38,-0.848 -0.848,-0.848" style="fill:#231f20;fill-rule:nonzero;"/><path d="M213.253,33.862c0.468,0 0.848,-0.38 0.848,-0.848c0,-0.468 -0.38,-0.848 -0.848,-0.848c-0.469,0 -0.849,0.38 -0.849,0.848c0,0.468 0.38,0.848 0.849,0.848" style="fill:#231f20;fill-rule:nonzero;"/><path d="M216.645,33.862c0.469,0 0.849,-0.38 0.849,-0.848c0,-0.468 -0.38,-0.848 -0.849,-0.848c-0.468,0 -0.848,0.38 -0.848,0.848c0,0.468 0.38,0.848 0.848,0.848" style="fill:#231f20;fill-rule:nonzero;"/><path d="M214.949,30.469c0.468,0 0.848,-0.38 0.848,-0.848c0,-0.468 -0.38,-0.848 -0.848,-0.848c-0.468,0 -0.848,0.38 -0.848,0.848c0,0.468 0.38,0.848 0.848,0.848" style="fill:#231f20;fill-rule:nonzero;"/><path d="M218.342,28.773c-0.468,0 -0.848,0.38 -0.848,0.848c0,0.468 0.38,0.848 0.848,0.848c0.468,0 0.848,-0.38 0.848,-0.848c0,-0.468 -0.38,-0.848 -0.848,-0.848" style="fill:#231f20;fill-rule:nonzero;"/><path d="M220.038,25.38c-0.468,0 -0.848,0.38 -0.848,0.848c0,0.469 0.38,0.849 0.848,0.849c0.469,0 0.849,-0.38 0.849,-0.849c0,-0.468 -0.38,-0.848 -0.849,-0.848" style="fill:#231f20;fill-rule:nonzero;"/><path d="M225.128,21.987c-0.469,0 -0.849,0.38 -0.849,0.849c0,0.468 0.38,0.848 0.849,0.848c0.468,0 0.848,-0.38 0.848,-0.848c0,-0.469 -0.38,-0.849 -0.848,-0.849" style="fill:#231f20;fill-rule:nonzero;"/><path d="M223.431,25.38c-0.468,0 -0.848,0.38 -0.848,0.848c0,0.469 0.38,0.849 0.848,0.849c0.468,0 0.848,-0.38 0.848,-0.849c0,-0.468 -0.38,-0.848 -0.848,-0.848" style="fill:#231f20;fill-rule:nonzero;"/><path d="M249.512,43.234c-0.554,0.415 -0.727,1.171 -0.406,1.785l3.228,6.198l-6.858,1.333c-0.682,0.132 -1.166,0.74 -1.143,1.433l0.219,6.991l-7.755,-2.01c0.034,-0.164 0.07,-0.315 0.11,-0.447c0.441,-1.468 2.496,-4.409 4.308,-7.003c1.369,-1.96 2.664,-3.811 3.456,-5.258c1.314,-2.403 1.98,-5.288 1.98,-8.573c0,-10.758 -8.767,-19.509 -19.545,-19.509c-10.777,0 -19.544,8.751 -19.544,19.509c0,3.283 0.668,6.168 1.983,8.572c0.792,1.448 2.086,3.303 3.458,5.265c1.81,2.592 3.864,5.529 4.302,6.997c0.039,0.126 0.074,0.27 0.107,0.427c-0.001,0 -0.001,0 -0.001,-0.001l-7.832,2.03l0.22,-6.99c0.022,-0.693 -0.461,-1.301 -1.143,-1.433l-6.859,-1.333l3.227,-6.198c0.321,-0.614 0.149,-1.37 -0.406,-1.785l-5.597,-4.189l5.597,-4.189c0.555,-0.415 0.727,-1.17 0.406,-1.784l-3.227,-6.197l6.859,-1.335c0.682,-0.133 1.165,-0.739 1.143,-1.432l-0.22,-6.989l6.765,1.765c0.675,0.174 1.369,-0.162 1.649,-0.795l2.832,-6.389l5.323,4.533c0.528,0.449 1.305,0.449 1.833,0l5.324,-4.533l2.834,6.389c0.28,0.633 0.977,0.969 1.649,0.795l6.764,-1.764l-0.219,6.988c-0.023,0.693 0.461,1.298 1.142,1.432l6.86,1.335l-3.229,6.197c-0.321,0.614 -0.148,1.369 0.406,1.784l5.597,4.189l-5.597,4.189ZM221.325,43.802c-0.756,0.026 -1.348,-0.149 -1.691,-0.508c-0.352,-0.368 -0.362,-0.875 -0.217,-1.214c0.069,-0.164 0.24,-0.439 0.586,-0.439c0.57,0 0.997,0.924 1.322,2.161M232.996,43.802c0.325,-1.236 0.752,-2.161 1.32,-2.161c0.348,0 0.518,0.275 0.589,0.439c0.145,0.339 0.134,0.847 -0.217,1.214c-0.344,0.36 -0.924,0.529 -1.692,0.508M234.199,57.704c-0.191,0.634 -0.323,1.507 -0.415,2.491l-3.253,0c0.375,-2.552 1.118,-7.628 1.48,-10.239c0.062,-0.449 0.123,-0.93 0.184,-1.424c0.109,-0.853 0.249,-1.967 0.44,-3.049c1.804,0.122 2.797,-0.513 3.28,-1.018c0.778,-0.816 0.993,-2.012 0.55,-3.053c-0.388,-0.905 -1.21,-1.467 -2.149,-1.467c-1.609,0 -2.469,1.526 -3.004,3.58c-0.315,-0.087 -0.645,-0.194 -0.986,-0.321c-0.659,-0.248 -1.243,-0.524 -1.759,-0.822c1.57,-1.538 2.112,-3.302 1.848,-4.754c-0.294,-1.627 -1.571,-2.678 -3.256,-2.678c-1.683,0 -2.961,1.051 -3.255,2.678c-0.262,1.454 0.28,3.216 1.848,4.754c-0.513,0.298 -1.097,0.574 -1.756,0.822c-0.342,0.128 -0.672,0.234 -0.988,0.322c-0.534,-2.055 -1.395,-3.581 -3.005,-3.581c-0.937,0 -1.758,0.562 -2.146,1.467c-0.445,1.04 -0.228,2.237 0.55,3.053c0.482,0.505 1.455,1.151 3.279,1.018c0.191,1.087 0.331,2.206 0.439,3.063c0.062,0.49 0.121,0.965 0.183,1.41c0.363,2.611 1.107,7.687 1.482,10.239l-3.361,0c-0.092,-0.984 -0.224,-1.857 -0.415,-2.491c-0.571,-1.901 -2.573,-4.768 -4.692,-7.803c-1.327,-1.897 -2.579,-3.689 -3.296,-5.003c-1.086,-1.984 -1.636,-4.412 -1.636,-7.215c0,-9.199 7.499,-16.682 16.716,-16.682c9.218,0 16.718,7.483 16.718,16.682c0,2.806 -0.551,5.234 -1.635,7.215c-0.717,1.312 -1.967,3.101 -3.292,4.997c-2.122,3.036 -4.127,5.905 -4.698,7.809M233.631,63.022c-0.014,0.523 -0.022,1.044 -0.023,1.556l-13.003,0c-0.002,-0.512 -0.009,-1.033 -0.022,-1.556l13.048,0ZM225.574,37.931c0.148,-0.817 0.726,-1.284 1.585,-1.284c0.862,0 1.44,0.467 1.588,1.284c0.18,0.991 -0.295,2.279 -1.587,3.441c-1.291,-1.162 -1.766,-2.45 -1.586,-3.441M227.16,43.508c0.726,0.477 1.58,0.913 2.572,1.284c0.436,0.163 0.844,0.294 1.226,0.396c-0.179,1.02 -0.314,2.093 -0.444,3.131c-0.063,0.489 -0.121,0.961 -0.184,1.405c-0.372,2.69 -1.152,8.014 -1.514,10.471l-3.311,0c-0.362,-2.457 -1.144,-7.781 -1.516,-10.471c-0.061,-0.439 -0.12,-0.906 -0.181,-1.389c-0.131,-1.043 -0.267,-2.123 -0.445,-3.146c0.382,-0.103 0.79,-0.234 1.227,-0.397c0.992,-0.371 1.845,-0.807 2.57,-1.284M220.529,68.925c0.015,-0.399 0.032,-0.921 0.047,-1.52l13.061,0c0.015,0.599 0.032,1.121 0.048,1.52l-13.156,0ZM227.106,74.023c-0.701,-0.531 -1.783,-1.361 -2.965,-2.271l5.932,0c-1.182,0.91 -2.265,1.74 -2.967,2.271M258.316,37.913l-6.147,-4.6l3.548,-6.811c0.207,-0.396 0.213,-0.866 0.02,-1.266c-0.193,-0.403 -0.565,-0.689 -1.003,-0.775l-7.538,-1.466l0.241,-7.676c0.015,-0.444 -0.182,-0.87 -0.532,-1.149c-0.347,-0.278 -0.806,-0.376 -1.237,-0.263l-7.432,1.937l-3.115,-7.02c-0.181,-0.408 -0.543,-0.706 -0.978,-0.806c-0.433,-0.099 -0.89,0.014 -1.231,0.303l-5.848,4.979l-5.848,-4.979c-0.339,-0.289 -0.797,-0.402 -1.229,-0.303c-0.436,0.1 -0.797,0.398 -0.98,0.806l-3.112,7.02l-7.431,-1.938c-0.435,-0.113 -0.89,-0.016 -1.239,0.263c-0.348,0.277 -0.545,0.704 -0.53,1.149l0.241,7.677l-7.538,1.466c-0.438,0.086 -0.81,0.372 -1.003,0.773c-0.193,0.402 -0.187,0.872 0.019,1.268l3.548,6.811l-6.146,4.6c-0.357,0.267 -0.566,0.687 -0.566,1.132c0,0.445 0.209,0.866 0.566,1.132l6.146,4.601l-3.548,6.811c-0.206,0.396 -0.212,0.865 -0.019,1.267c0.193,0.402 0.565,0.689 1.003,0.773l7.538,1.467l-0.241,7.673c-0.015,0.447 0.182,0.872 0.529,1.15c0.347,0.277 0.807,0.375 1.237,0.264l9.247,-2.397c0.135,2.755 0.041,6.206 -0.035,7.776c-0.024,0.461 0.181,0.904 0.545,1.186c1.241,0.962 7.46,5.778 8.104,6.209c0.238,0.159 0.51,0.237 0.784,0.237c0.275,0 0.547,-0.078 0.785,-0.237c0.645,-0.431 6.864,-5.247 8.104,-6.209c0.364,-0.282 0.569,-0.725 0.545,-1.186c-0.075,-1.566 -0.169,-5.004 -0.036,-7.753l9.167,2.375c0.116,0.031 0.236,0.045 0.353,0.045l0.023,0c0.78,0 1.414,-0.632 1.414,-1.413c0,-0.101 -0.01,-0.201 -0.032,-0.297l-0.233,-7.423l7.537,-1.467c0.439,-0.084 0.811,-0.371 1.004,-0.773c0.193,-0.402 0.187,-0.873 -0.02,-1.267l-3.548,-6.811l6.147,-4.601c0.357,-0.266 0.566,-0.687 0.566,-1.132c0,-0.445 -0.209,-0.865 -0.566,-1.132" style="fill:#231f20;fill-rule:nonzero;"/></g><g><path d="M301.155,31.857c-0.414,0 -0.823,-0.186 -1.093,-0.538c-0.258,-0.339 -2.651,-3.355 -7.16,-5.351c-3.66,-1.619 -8.159,-1.616 -11.776,-1.601l-0.722,0.002c-0.759,0 -1.374,-0.616 -1.374,-1.376c0,-0.758 0.615,-1.374 1.374,-1.374l0.715,0c3.679,-0.014 8.702,-0.021 12.896,1.836c5.028,2.226 7.738,5.549 8.23,6.193c0.461,0.603 0.347,1.465 -0.256,1.927c-0.251,0.19 -0.543,0.282 -0.834,0.282" style="fill:#fff;fill-rule:nonzero;"/><path d="M301.989,31.575c-0.251,0.19 -0.543,0.282 -0.835,0.282c-0.413,0 -0.822,-0.185 -1.092,-0.538c-0.257,-0.339 -2.651,-3.354 -7.16,-5.352c-3.66,-1.618 -8.159,-1.615 -11.776,-1.6l-0.723,0.001c-0.758,0 -1.374,-0.615 -1.374,-1.374c0,-0.759 0.616,-1.375 1.374,-1.375l0.717,-0.001c3.678,-0.013 8.701,-0.02 12.894,1.837c5.029,2.226 7.739,5.55 8.231,6.193c0.461,0.603 0.346,1.465 -0.256,1.927M282.908,53.748l-1.669,0l-10.538,0l0,-23.267l12.14,0c9.263,0 13.576,3.603 13.576,11.336c0,8.14 -4.294,11.931 -13.509,11.931M285.271,18.112l-4.767,0l-10.993,0l-11.714,0c-0.505,0 -0.915,0.408 -0.915,0.914l0,46.176c0,0.506 0.41,0.915 0.915,0.915l27.474,0c16.245,0 24.115,-11.143 24.115,-24.3c0,-12.075 -7.627,-23.705 -24.115,-23.705" style="fill:#231f20;fill-rule:nonzero;"/></g><g><path d="M353.3,16.397c-3.053,0.005 -4.716,2.43 -4.745,5.51l0,11.058c-0.294,-2.607 -1.771,-4.626 -4.49,-4.621c-2.795,0.005 -4.408,2.044 -4.687,4.749l0.004,-0.482c-0.004,-3.067 -1.499,-5.609 -4.553,-5.602c-2.883,0.005 -4.508,2.178 -4.705,5.01l0.022,-15.43c-0.004,-4.402 -1.499,-6.945 -4.553,-6.938c-3.053,0.005 -4.716,2.433 -4.745,5.511l-0.176,16.536c0,0 -5.557,-0.61 -5.557,5.362c0,1.958 -0.063,11.415 -0.019,14.293c0.149,9.956 10.098,18.291 10.098,18.291l23.963,0c0,0 8.686,-5.61 8.686,-14.717l0.01,-31.594c-0.004,-4.403 -1.499,-6.944 -4.553,-6.936" style="fill:#fff;fill-rule:nonzero;"/><path d="M356.174,54.927c0,7.032 -5.967,11.887 -7.544,13.047l-22.803,0c-1.852,-1.697 -8.943,-8.707 -9.063,-16.648c-0.031,-2.053 -0.007,-7.532 0.008,-11.157c0.007,-1.419 0.012,-2.559 0.012,-3.109c0,-1.325 0.33,-2.298 0.981,-2.892c0.421,-0.382 0.94,-0.588 1.414,-0.697l0,8.724c0,0.921 0.748,1.669 1.669,1.669c0.922,0 1.669,-0.748 1.669,-1.669l0,-27.018c0.008,-0.903 0.255,-3.851 3.081,-3.856l0.006,0c0.716,0 1.239,0.191 1.652,0.602c0.786,0.784 1.219,2.441 1.222,4.662l-0.024,15.128c-0.023,0.266 -0.036,0.541 -0.039,0.819l0.031,4.378c0.006,0.917 0.753,1.657 1.669,1.657l0.005,0c0.919,-0.003 1.662,-0.748 1.664,-1.666l0.008,-5.003c0.136,-1.21 0.711,-3.216 3.041,-3.22l0.007,0c0.905,0 1.582,0.32 2.07,0.974c0.516,0.697 0.802,1.748 0.803,2.947l-0.001,0.237c-0.037,0.335 -0.057,0.681 -0.061,1.035l0.03,3.044c0.01,0.915 0.755,1.652 1.669,1.652l0.002,0c0.917,-0.001 1.662,-0.741 1.667,-1.657l0.028,-3.839c0.17,-1.219 0.794,-3.053 3.022,-3.057l0.007,0c0.905,0 1.582,0.319 2.069,0.973c0.377,0.509 0.631,1.206 0.741,2.015l0,3.896c0,0.533 0.317,1.08 0.748,1.394c0.507,0.371 1.18,0.423 1.74,0.14c0.561,-0.284 0.913,-0.86 0.913,-1.489l0,-3c0,-0.394 -0.021,-0.778 -0.063,-1.151l0,-10.87c0.008,-0.904 0.255,-3.852 3.081,-3.856c0.707,0.014 1.244,0.19 1.658,0.601c0.786,0.784 1.219,2.441 1.222,4.667l-0.011,31.593ZM357.318,16.302c-1.037,-1.033 -2.388,-1.585 -4.02,-1.574c-3.795,0.005 -6.372,2.886 -6.412,7.18l0,5.429c-0.838,-0.437 -1.833,-0.68 -2.824,-0.661c-1.639,0.002 -3.051,0.54 -4.129,1.499c-0.107,-0.177 -0.222,-0.348 -0.344,-0.513c-1.113,-1.498 -2.8,-2.322 -4.749,-2.322l-0.013,0c-1.129,0.002 -2.149,0.257 -3.026,0.729l0.015,-9.482c-0.003,-3.209 -0.744,-5.575 -2.203,-7.029c-1.035,-1.031 -2.42,-1.575 -4.009,-1.575l-0.013,0c-3.795,0.006 -6.372,2.885 -6.412,7.179l0,14.917c-1.065,0.139 -2.452,0.538 -3.626,1.59c-1.398,1.254 -2.107,3.067 -2.107,5.391c0,0.547 -0.005,1.682 -0.012,3.095c-0.015,3.638 -0.04,9.135 -0.008,11.222c0.16,10.599 10.266,19.186 10.696,19.545c0.301,0.252 0.68,0.39 1.072,0.39l23.964,0c0.32,0 0.635,-0.092 0.905,-0.267c0.386,-0.249 9.449,-6.216 9.449,-16.118l0.011,-31.595c-0.003,-3.21 -0.745,-5.576 -2.205,-7.03" style="fill:#231f20;fill-rule:nonzero;"/><path d="M342.148,45.511c-0.553,0 -1.002,0.447 -1.002,1.001c0,0.553 0.449,1.001 1.002,1.001c0.553,0 1.001,-0.448 1.001,-1.001c0,-0.554 -0.448,-1.001 -1.001,-1.001" style="fill:#231f20;fill-rule:nonzero;"/><path d="M332.134,41.505c-0.553,0 -1.002,0.447 -1.002,1.001c0,0.553 0.449,1.002 1.002,1.002c0.552,0 1.001,-0.449 1.001,-1.002c0,-0.554 -0.449,-1.001 -1.001,-1.001" style="fill:#231f20;fill-rule:nonzero;"/><path d="M340.145,41.505c-0.553,0 -1.001,0.447 -1.001,1.001c0,0.553 0.448,1.002 1.001,1.002c0.553,0 1.001,-0.449 1.001,-1.002c0,-0.554 -0.448,-1.001 -1.001,-1.001" style="fill:#231f20;fill-rule:nonzero;"/><path d="M350.159,61.366c-0.553,0 -1.001,0.448 -1.001,1.002c0,0.552 0.448,1.001 1.001,1.001c0.553,0 1.001,-0.449 1.001,-1.001c0,-0.554 -0.448,-1.002 -1.001,-1.002" style="fill:#231f20;fill-rule:nonzero;"/><path d="M348.156,57.361c-0.553,0 -1.001,0.447 -1.001,1.001c0,0.553 0.448,1.001 1.001,1.001c0.553,0 1.002,-0.448 1.002,-1.001c0,-0.554 -0.449,-1.001 -1.002,-1.001" style="fill:#231f20;fill-rule:nonzero;"/><path d="M352.162,57.361c-0.553,0 -1.002,0.447 -1.002,1.001c0,0.553 0.449,1.001 1.002,1.001c0.553,0 1.001,-0.448 1.001,-1.001c0,-0.554 -0.448,-1.001 -1.001,-1.001" style="fill:#231f20;fill-rule:nonzero;"/><path d="M346.153,53.355c-0.552,0 -1.001,0.447 -1.001,1.001c0,0.553 0.449,1.002 1.001,1.002c0.553,0 1.002,-0.449 1.002,-1.002c0,-0.554 -0.449,-1.001 -1.002,-1.001" style="fill:#231f20;fill-rule:nonzero;"/><path d="M350.159,53.355c-0.553,0 -1.001,0.447 -1.001,1.001c0,0.553 0.448,1.002 1.001,1.002c0.553,0 1.001,-0.449 1.001,-1.002c0,-0.554 -0.448,-1.001 -1.001,-1.001" style="fill:#231f20;fill-rule:nonzero;"/><path d="M354.081,53.355c-0.553,0 -1.001,0.447 -1.001,1.001c0,0.553 0.448,1.002 1.001,1.002c0.553,0 1.002,-0.449 1.002,-1.002c0,-0.554 -0.449,-1.001 -1.002,-1.001" style="fill:#231f20;fill-rule:nonzero;"/><path d="M352.162,43.341c0.553,0 1.001,-0.449 1.001,-1.002c0,-0.554 -0.448,-1.001 -1.001,-1.001c-0.553,0 -1.002,0.447 -1.002,1.001c0,0.553 0.449,1.002 1.002,1.002" style="fill:#231f20;fill-rule:nonzero;"/><path d="M352.162,35.33c0.553,0 1.001,-0.449 1.001,-1.002c0,-0.554 -0.448,-1.001 -1.001,-1.001c-0.553,0 -1.002,0.447 -1.002,1.001c0,0.553 0.449,1.002 1.002,1.002" style="fill:#231f20;fill-rule:nonzero;"/><path d="M354.165,37.332c-0.553,0 -1.002,0.448 -1.002,1.002c0,0.553 0.449,1.001 1.002,1.001c0.553,0 1.001,-0.448 1.001,-1.001c0,-0.554 -0.448,-1.002 -1.001,-1.002" style="fill:#231f20;fill-rule:nonzero;"/><path d="M348.156,51.352c0.553,0 1.002,-0.449 1.002,-1.001c0,-0.554 -0.449,-1.002 -1.002,-1.002c-0.553,0 -1.001,0.448 -1.001,1.002c0,0.552 0.448,1.001 1.001,1.001" style="fill:#231f20;fill-rule:nonzero;"/><path d="M352.162,49.349c-0.553,0 -1.002,0.448 -1.002,1.002c0,0.552 0.449,1.001 1.002,1.001c0.553,0 1.001,-0.449 1.001,-1.001c0,-0.554 -0.448,-1.002 -1.001,-1.002" style="fill:#231f20;fill-rule:nonzero;"/><path d="M346.133,47.346c0.552,0 1.001,-0.448 1.001,-1.001c0,-0.554 -0.449,-1.001 -1.001,-1.001c-0.553,0 -1.002,0.447 -1.002,1.001c0,0.553 0.449,1.001 1.002,1.001" style="fill:#231f20;fill-rule:nonzero;"/><path d="M338.121,45.344c-0.552,0 -1.001,0.447 -1.001,1.001c0,0.553 0.449,1.001 1.001,1.001c0.553,0 1.002,-0.448 1.002,-1.001c0,-0.554 -0.449,-1.001 -1.002,-1.001" style="fill:#231f20;fill-rule:nonzero;"/><path d="M328.107,41.338c-0.553,0 -1.001,0.447 -1.001,1.001c0,0.553 0.448,1.002 1.001,1.002c0.553,0 1.002,-0.449 1.002,-1.002c0,-0.554 -0.449,-1.001 -1.002,-1.001" style="fill:#231f20;fill-rule:nonzero;"/><path d="M336.119,41.338c-0.553,0 -1.002,0.447 -1.002,1.001c0,0.553 0.449,1.002 1.002,1.002c0.552,0 1.001,-0.449 1.001,-1.002c0,-0.554 -0.449,-1.001 -1.001,-1.001" style="fill:#231f20;fill-rule:nonzero;"/><path d="M344.13,43.341c0.553,0 1.001,-0.449 1.001,-1.002c0,-0.554 -0.448,-1.001 -1.001,-1.001c-0.553,0 -1.002,0.447 -1.002,1.001c0,0.553 0.449,1.002 1.002,1.002" style="fill:#231f20;fill-rule:nonzero;"/><path d="M344.13,49.349c-0.553,0 -1.002,0.448 -1.002,1.002c0,0.552 0.449,1.001 1.002,1.001c0.553,0 1.001,-0.449 1.001,-1.001c0,-0.554 -0.448,-1.002 -1.001,-1.002" style="fill:#231f20;fill-rule:nonzero;"/><path d="M348.156,43.341c0.553,0 1.002,-0.449 1.002,-1.002c0,-0.554 -0.449,-1.001 -1.002,-1.001c-0.553,0 -1.001,0.447 -1.001,1.001c0,0.553 0.448,1.002 1.001,1.002" style="fill:#231f20;fill-rule:nonzero;"/><path d="M350.159,47.346c0.553,0 1.001,-0.448 1.001,-1.001c0,-0.554 -0.448,-1.001 -1.001,-1.001c-0.553,0 -1.001,0.447 -1.001,1.001c0,0.553 0.448,1.001 1.001,1.001" style="fill:#231f20;fill-rule:nonzero;"/><path d="M354.165,45.344c-0.553,0 -1.002,0.447 -1.002,1.001c0,0.553 0.449,1.001 1.002,1.001c0.553,0 1.001,-0.448 1.001,-1.001c0,-0.554 -0.448,-1.001 -1.001,-1.001" style="fill:#231f20;fill-rule:nonzero;"/><path d="M352.162,27.318c0.553,0 1.001,-0.448 1.001,-1.001c0,-0.554 -0.448,-1.002 -1.001,-1.002c-0.553,0 -1.002,0.448 -1.002,1.002c0,0.553 0.449,1.001 1.002,1.001" style="fill:#231f20;fill-rule:nonzero;"/><path d="M354.165,29.321c-0.553,0 -1.002,0.447 -1.002,1.002c0,0.552 0.449,1.001 1.002,1.001c0.553,0 1.001,-0.449 1.001,-1.001c0,-0.555 -0.448,-1.002 -1.001,-1.002" style="fill:#231f20;fill-rule:nonzero;"/><path d="M354.165,21.31c-0.553,0 -1.002,0.447 -1.002,1.001c0,0.553 0.449,1.002 1.002,1.002c0.553,0 1.001,-0.449 1.001,-1.002c0,-0.554 -0.448,-1.001 -1.001,-1.001" style="fill:#231f20;fill-rule:nonzero;"/></g></svg>